<svg xmlns="http://www.w3.org/2000/svg" version="1.1" xmlns:xlink="http://www.w3.org/1999/xlink" xmlns:svgjs="http://svgjs.dev/svgjs" width="1000" height="623" viewBox="0 0 1000 623"><g transform="matrix(1,0,0,1,-0.6060348474869102,0.2522267206477977)"><svg viewBox="0 0 396 247" data-background-color="#ffffff" preserveAspectRatio="xMidYMid meet" height="623" width="1000" xmlns="http://www.w3.org/2000/svg" xmlns:xlink="http://www.w3.org/1999/xlink"><g id="tight-bounds" transform="matrix(1,0,0,1,0.23998979960481392,-0.09999999999999432)"><svg viewBox="0 0 395.52 247.2" height="247.2" width="395.52"><g><svg></svg></g><g><svg viewBox="0 0 395.52 247.2" height="247.2" width="395.52"><g><g><path xmlns="http://www.w3.org/2000/svg" d="M263.762 71.079l-1.751-44.468c-11.905-4.669-24.393-7.003-37.465-7.003-26.377 0-47.666 9.687-63.866 29.062-8.528 10.169-14.817 22.815-18.869 37.936l-24.088 0c4.956-20.509 13.439-37.659 25.45-51.452 20.402-23.436 46.942-35.154 79.622-35.154 18.207 0 33.847 3.618 46.919 10.854 4.902 2.568 8.754 5.369 11.555 8.404v50.77zM161.87 212.186c11.671 10.504 27.895 15.756 48.67 15.756 13.305 0 26.681-1.517 40.126-4.552 13.399-3.035 22.549-5.952 27.451-8.753l4.902 17.157c-10.271 6.769-28.245 11.438-53.921 14.005-7.47 0.934-15.336 1.401-23.6 1.401-8.31 0-18.067-1.354-29.272-4.062-11.205-2.661-21.592-8.077-31.162-16.246-17.082-14.511-27.444-36.61-31.085-66.298h24.056c3.277 23.336 11.222 40.533 23.835 51.592z" fill="#202046" fill-rule="nonzero" stroke="none" stroke-width="1" stroke-linecap="butt" stroke-linejoin="miter" stroke-miterlimit="10" stroke-dasharray="" stroke-dashoffset="0" font-family="none" font-weight="none" font-size="none" text-anchor="none" style="mix-blend-mode: normal" data-fill-palette-color="tertiary"></path></g></g><g transform="matrix(1,0,0,1,0,94.96334933743037)"><svg viewBox="0 0 395.52 57.27330132513923" height="57.27330132513923" width="395.52"><g><svg viewBox="0 0 395.52 57.27330132513923" height="57.27330132513923" width="395.52"><g><svg viewBox="0 0 395.52 57.27330132513923" height="57.27330132513923" width="395.52"><g><svg viewBox="0 0 395.52 57.27330132513923" height="57.27330132513923" width="395.52"><g><svg viewBox="0 0 395.52 57.27330132513923" height="57.27330132513923" width="395.52"><g><svg viewBox="0 0 395.52 57.27330132513923" height="57.27330132513923" width="395.52"><g transform="matrix(1,0,0,1,0,0)"><svg width="395.52" viewBox="3.25 -37.5 260.3299865722656 37.70000076293945" height="57.27330132513923" data-palette-color="#202046"><path d="M24.85-24.95L24.6-31.3Q22.05-32.3 19.25-32.3L19.25-32.3Q13.6-32.3 10.13-28.15 6.65-24 6.65-16 6.65-8 10.3-4.8L10.3-4.8Q12.8-2.55 17.25-2.55L17.25-2.55Q20.1-2.55 22.98-3.2 25.85-3.85 26.9-4.45L26.9-4.45 27.6-2Q25.4-0.55 19.9 0L19.9 0Q18.3 0.2 16.53 0.2 14.75 0.2 12.35-0.38 9.95-0.95 7.9-2.7L7.9-2.7Q3.25-6.65 3.25-15.85 3.25-25.05 7.63-30.08 12-35.1 19-35.1L19-35.1Q22.9-35.1 25.7-33.55L25.7-33.55Q26.75-33 27.35-32.35L27.35-32.35 27.35-25.1 24.85-24.95ZM30.65-6.4L30.65-6.4Q29.75-8.8 29.75-12L29.75-12Q29.75-18.15 33.2-21.68 36.65-25.2 41.85-25.2L41.85-25.2Q50-25.2 52.55-18.6L52.55-18.6Q53.5-16.2 53.5-13L53.5-13Q53.5-6.85 50.05-3.33 46.6 0.2 41.4 0.2L41.4 0.2Q33.25 0.2 30.65-6.4ZM33-12.35Q33-7.75 35.37-5.23 37.75-2.7 41.5-2.7 45.25-2.7 47.75-5.38 50.25-8.05 50.25-12.65 50.25-17.25 47.9-19.78 45.55-22.3 41.77-22.3 38-22.3 35.5-19.63 33-16.95 33-12.35ZM70.15-25.25L70.15-25.25Q73.09-25.25 75.75-23.5L75.75-23.5 75.75-37.25 79-37.5 79-1.15 78.75-1.15Q77.2-0.5 73.57-0.15 69.95 0.2 68.55 0.2L68.55 0.2Q64.34 0.2 61.6-1.9L61.6-1.9Q57.75-4.8 57.75-11.45 57.75-18.1 61.32-21.68 64.9-25.25 70.15-25.25ZM75.75-3.2L75.75-21.35Q73.25-22.3 70.84-22.3L70.84-22.3Q66.25-22.3 63.62-19.5 61-16.7 61-11.55 61-6.4 63.85-4.3L63.85-4.3Q65.9-2.7 69.02-2.7 72.15-2.7 75.75-3.2L75.75-3.2ZM86.09-12.3L86.09-11.5Q86.09-2.7 94.49-2.7L94.49-2.7Q98.04-2.7 100.99-3.65L100.99-3.65Q101.74-3.9 102.04-4.05L102.04-4.05 102.79-1.4Q101.04-0.35 96.44 0.1L96.44 0.1Q95.14 0.2 93.69 0.2L93.69 0.2Q89.49 0.2 86.69-1.9L86.69-1.9Q82.84-4.75 82.84-11.4 82.84-18.05 86.32-21.63 89.79-25.2 94.74-25.2 99.69-25.2 102.19-22L102.19-22Q104.09-19.45 104.09-15.25L104.09-15.25Q104.09-14.25 103.99-13.15L103.99-13.15 86.14-13.15Q86.09-12.75 86.09-12.3L86.09-12.3ZM94.94-22.1L94.94-22.1Q91.84-22.1 89.64-20.23 87.44-18.35 86.59-15.4L86.59-15.4 101.14-15.4Q100.89-20.95 96.84-21.85L96.84-21.85Q95.94-22.1 94.94-22.1ZM112.64 0L109.49 0 109.49-35 112.89-35 125.74-9.4 138.59-35 141.99-35 141.99 0 138.84 0 138.84-29.2 127.44-6.55 124.04-6.55 112.64-29.2 112.64 0ZM148.19-19.9L147.29-22.3Q152.74-25 156.84-25.15L156.84-25.15Q160.09-25.15 161.86-24.33 163.64-23.5 164.74-22.03 165.84-20.55 165.84-17.9L165.84-17.9 165.84 0 162.59 0 162.59-1.9Q155.74 0.2 153.79 0.2L153.79 0.2Q153.69 0.2 153.64 0.2L153.64 0.2Q149.14 0.2 147.49-2.55L147.49-2.55Q146.89-3.55 146.81-4.5 146.74-5.45 146.74-6.1L146.74-6.1Q146.74-7.9 148.14-9.33 149.54-10.75 151.49-11.25L151.49-11.25Q154.79-12.1 162.59-12.75L162.59-12.75 162.59-16.8Q162.59-22.25 156.89-22.25L156.89-22.25Q152.89-22.25 148.19-19.9L148.19-19.9ZM149.79-5.7L149.79-5.7Q149.79-2.1 154.74-2.1L154.74-2.1Q158.69-2.1 162.59-3.8L162.59-3.8 162.59-10.95Q154.79-9.85 152.94-9.25L152.94-9.25Q149.79-8.25 149.79-5.7ZM185.44-24.5L184.63-21.7Q182.84-22.3 179.74-22.3 176.63-22.3 174.94-21.2 173.24-20.1 173.24-18.48 173.24-16.85 174.24-16.1 175.24-15.35 176.74-14.83 178.24-14.3 180.01-13.8 181.78-13.3 183.28-12.5L183.28-12.5Q186.78-10.7 186.78-7.15 186.78-3.6 184.36-1.7 181.94 0.2 177.28 0.2L177.28 0.2Q174.94 0.2 172.76-0.28 170.59-0.75 169.44-1.6L169.44-1.6 170.53-4.25Q171.69-3.25 175.19-2.8L175.19-2.8Q176.28-2.65 177.44-2.65L177.44-2.65Q180.03-2.65 181.78-3.73 183.53-4.8 183.53-7L183.53-7Q183.53-8.5 182.53-9.35 181.53-10.2 180.03-10.78 178.53-11.35 176.76-11.8 174.99-12.25 173.49-12.98 171.99-13.7 170.99-14.88 169.99-16.05 169.99-18.05L169.99-18.05Q169.99-21.3 172.49-23.25 174.99-25.2 179.19-25.2L179.19-25.2Q180.24-25.2 181.34-25.08 182.44-24.95 183.34-24.85L183.34-24.85 185.44-24.5ZM201.53-3.6L202.13-0.9Q201.23 0 198.88 0L198.88 0Q195.58 0 194.43-1.7L194.43-1.7Q192.48-3.55 192.48-6.7L192.48-6.7 192.48-22.1 189.68-22.1 190.13-25 192.48-25 192.48-29.95 195.73-30.25 195.73-25 201.53-25 201.53-22.1 195.73-22.1 195.73-5.9Q195.73-3 198.73-3L198.73-3Q200.03-3 201.53-3.6L201.53-3.6ZM208.08-12.3L208.08-11.5Q208.08-2.7 216.48-2.7L216.48-2.7Q220.03-2.7 222.98-3.65L222.98-3.65Q223.73-3.9 224.03-4.05L224.03-4.05 224.78-1.4Q223.03-0.35 218.43 0.1L218.43 0.1Q217.13 0.2 215.68 0.2L215.68 0.2Q211.48 0.2 208.68-1.9L208.68-1.9Q204.83-4.75 204.83-11.4 204.83-18.05 208.31-21.63 211.78-25.2 216.73-25.2 221.68-25.2 224.18-22L224.18-22Q226.08-19.45 226.08-15.25L226.08-15.25Q226.08-14.25 225.98-13.15L225.98-13.15 208.13-13.15Q208.08-12.75 208.08-12.3L208.08-12.3ZM216.93-22.1L216.93-22.1Q213.83-22.1 211.63-20.23 209.43-18.35 208.58-15.4L208.58-15.4 223.13-15.4Q222.88-20.95 218.83-21.85L218.83-21.85Q217.93-22.1 216.93-22.1ZM244.73-24.5L243.43-21.5Q242.63-21.95 241.73-21.95 240.83-21.95 240.73-21.9L240.73-21.9Q238.83-21.9 236.9-20.53 234.98-19.15 233.63-17.45L233.63-17.45 233.63 0 230.38 0 230.38-25 233.63-25.25 233.63-19.65Q235.48-22 236.78-22.95L236.78-22.95Q239.18-24.75 241.38-24.85L241.38-24.85Q241.68-24.9 242.48-24.9 243.28-24.9 244.73-24.5L244.73-24.5ZM262.23-24.5L261.43-21.7Q259.63-22.3 256.53-22.3 253.43-22.3 251.73-21.2 250.03-20.1 250.03-18.48 250.03-16.85 251.03-16.1 252.03-15.35 253.53-14.83 255.03-14.3 256.8-13.8 258.58-13.3 260.08-12.5L260.08-12.5Q263.58-10.7 263.58-7.15 263.58-3.6 261.15-1.7 258.73 0.2 254.08 0.2L254.08 0.2Q251.73 0.2 249.55-0.28 247.38-0.75 246.23-1.6L246.23-1.6 247.33-4.25Q248.48-3.25 251.98-2.8L251.98-2.8Q253.08-2.65 254.23-2.65L254.23-2.65Q256.83-2.65 258.58-3.73 260.33-4.8 260.33-7L260.33-7Q260.33-8.5 259.33-9.35 258.33-10.2 256.83-10.78 255.33-11.35 253.55-11.8 251.78-12.25 250.28-12.98 248.78-13.7 247.78-14.88 246.78-16.05 246.78-18.05L246.78-18.05Q246.78-21.3 249.28-23.25 251.78-25.2 255.98-25.2L255.98-25.2Q257.03-25.2 258.13-25.08 259.23-24.95 260.13-24.85L260.13-24.85 262.23-24.5Z" opacity="1" transform="matrix(1,0,0,1,0,0)" fill="#202046" class="undefined-text-0" data-fill-palette-color="primary" id="text-0"></path></svg></g></svg></g></svg></g></svg></g><g></g></svg></g></svg></g></svg></g></svg></g><defs></defs></svg><rect width="395.52" height="247.2" fill="none" stroke="none" visibility="hidden"></rect></g></svg></g></svg>